<svg width="64" height="64" viewBox="0 0 64 64" fill="none" xmlns="http://www.w3.org/2000/svg">
<path d="M37.3334 5.33331H16C14.5855 5.33331 13.229 5.89522 12.2288 6.89541C11.2286 7.8956 10.6667 9.25216 10.6667 10.6666V53.3333C10.6667 54.7478 11.2286 56.1044 12.2288 57.1045C13.229 58.1047 14.5855 58.6666 16 58.6666H48C49.4145 58.6666 50.7711 58.1047 51.7713 57.1045C52.7715 56.1044 53.3334 54.7478 53.3334 53.3333V21.3333L37.3334 5.33331ZM34.6667 10.6666L48 24H34.6667V10.6666ZM22.7494 48H20.7227V44.2373H17.3734V48H15.328V39.0053H17.3734V42.4613H20.7254V39.0053H22.752L22.7494 48ZM30.7494 40.7146H28.2934V48H26.2507V40.7146H23.8374V39.0053H30.7494V40.7146ZM39.5147 48L39.3814 44.5573C39.336 43.4773 39.3014 42.168 39.3014 40.8586H39.2587C38.9814 42.008 38.6054 43.288 38.2587 44.344L37.1654 47.8533H35.5734L34.616 44.368C34.292 43.2109 34.0197 42.04 33.8 40.8586H33.7707C33.7147 42.0746 33.68 43.4613 33.6134 44.5813L33.4534 48H31.5734L32.1494 39.0053H34.856L35.7387 42.008C36.016 43.0506 36.2987 44.1706 36.496 45.224H36.5414C36.7947 44.1813 37.0987 42.9946 37.3947 41.9946L38.352 39.0053H41.008L41.5014 48H39.5147ZM48.672 48H43.0507V39.0053H45.096V46.2906H48.6747L48.672 48Z" fill="white"/>
</svg>
