<svg width="64" height="64" viewBox="0 0 64 64" fill="none" xmlns="http://www.w3.org/2000/svg">
<path d="M37.3333 5.33331H16C14.5855 5.33331 13.2289 5.89522 12.2287 6.89541C11.2285 7.8956 10.6666 9.25216 10.6666 10.6666V53.3333C10.6666 54.7478 11.2285 56.1044 12.2287 57.1045C13.2289 58.1047 14.5855 58.6666 16 58.6666H48C49.4144 58.6666 50.771 58.1047 51.7712 57.1045C52.7714 56.1044 53.3333 54.7478 53.3333 53.3333V21.3333L37.3333 5.33331ZM30.0133 43.1626C30.0133 46.7493 28.296 48 25.5306 48C24.8773 48 24.0186 47.888 23.4586 47.7013L23.776 45.4053C24.168 45.536 24.672 45.6293 25.232 45.6293C26.4266 45.6293 27.176 45.088 27.176 43.128V35.208H30.0133V43.1626ZM35.4613 47.9813C34.024 47.9813 32.6053 47.6053 31.896 47.216L32.4746 44.8613C33.24 45.2533 34.4186 45.6453 35.632 45.6453C36.9413 45.6453 37.6293 45.104 37.6293 44.2826C37.6293 43.496 37.032 43.048 35.52 42.5066C33.4293 41.7813 32.0666 40.6213 32.0666 38.7893C32.0666 36.64 33.8586 34.9973 36.8293 34.9973C38.2506 34.9973 39.296 35.296 40.0426 35.632L39.408 37.928C38.904 37.6853 38.008 37.3306 36.776 37.3306C35.544 37.3306 34.944 37.8906 34.944 38.544C34.944 39.3466 35.656 39.704 37.2773 40.3173C39.5013 41.1413 40.5466 42.296 40.5466 44.072C40.5413 46.1866 38.92 47.9813 35.4613 47.9813ZM37.3333 24H34.6666V10.6666L48 24H37.3333Z" fill="white"/>
</svg>
