<svg width="64" height="64" viewBox="0 0 64 64" fill="none" xmlns="http://www.w3.org/2000/svg">
<path d="M32 58.6267C31.2667 58.6267 30.5813 58.4294 29.9413 58.088L23.4373 54.2267C22.464 53.6854 22.952 53.488 23.2453 53.3894C24.568 52.9494 24.8133 52.8534 26.1813 52.0747C26.3307 51.976 26.5253 52.0214 26.6747 52.12L31.6613 55.1067C31.8587 55.2027 32.104 55.2027 32.2507 55.1067L51.768 43.808C51.9653 43.712 52.0613 43.5147 52.0613 43.2694V20.7147C52.0613 20.472 51.9653 20.2747 51.768 20.1787L32.2507 8.92802C32.056 8.82936 31.8107 8.82936 31.6613 8.92802L12.1387 20.176C11.944 20.272 11.8453 20.52 11.8453 20.712V43.264C11.8453 43.4587 11.944 43.7067 12.1387 43.8027L17.472 46.888C20.3573 48.3494 22.1707 46.6347 22.1707 44.928V22.672C22.1707 22.3787 22.4133 22.0827 22.7573 22.0827H25.2533C25.5413 22.0827 25.84 22.328 25.84 22.672V44.9307C25.84 48.7947 23.7387 51.048 20.0693 51.048C18.944 51.048 18.064 51.048 15.568 49.8214L10.4347 46.8907C9.80922 46.5271 9.29016 46.0057 8.92936 45.3787C8.56857 44.7516 8.37867 44.0408 8.37866 43.3174V20.7627C8.37866 19.296 9.16 17.9254 10.4347 17.192L29.944 5.89336C30.5773 5.55465 31.2844 5.37744 32.0027 5.37744C32.7209 5.37744 33.428 5.55465 34.0613 5.89336L53.5733 17.192C54.8507 17.9227 55.6293 19.296 55.6293 20.7627V43.3174C55.6293 44.7814 54.848 46.152 53.5733 46.8907L34.0613 58.1867C33.4187 58.48 32.6853 58.6267 32 58.6267ZM38.016 43.1174C29.456 43.1174 27.696 39.2027 27.696 35.88C27.696 35.5867 27.9413 35.2907 28.2827 35.2907H30.8267C31.12 35.2907 31.3627 35.4854 31.3627 35.7814C31.7547 38.3707 32.8773 39.6454 38.0667 39.6454C42.1733 39.6454 43.9387 38.712 43.9387 36.512C43.9387 35.24 43.4453 34.312 37.04 33.6774C31.7093 33.144 28.384 31.9627 28.384 27.7094C28.384 23.7494 31.7093 21.4 37.288 21.4C43.5467 21.4 46.6293 23.5574 47.0187 28.248C47.014 28.4063 46.962 28.5596 46.8693 28.688C46.7707 28.784 46.6267 28.8827 46.48 28.8827H43.9387C43.813 28.88 43.6919 28.8356 43.5943 28.7564C43.4968 28.6772 43.4284 28.5678 43.4 28.4454C42.8107 25.7467 41.296 24.872 37.288 24.872C32.784 24.872 32.2453 26.4374 32.2453 27.6107C32.2453 29.0267 32.8773 29.4667 38.9493 30.2507C44.9653 31.032 47.8027 32.1574 47.8027 36.368C47.7493 40.6747 44.232 43.1174 38.016 43.1174Z" fill="white"/>
</svg>
