<svg width="64" height="64" viewBox="0 0 64 64" fill="none" xmlns="http://www.w3.org/2000/svg">
<path d="M28.64 34.3736V34.0802C28.8 33.6802 28.96 33.3069 29.1467 32.9336C30.6226 29.8143 30.8701 26.2537 29.84 22.9602C29.7862 22.4899 29.5881 22.0477 29.273 21.6944C28.9579 21.3411 28.5412 21.0939 28.08 20.9869C26.0961 20.8488 24.1284 21.4259 22.5333 22.6136V23.0936C22.7085 25.2354 22.6549 27.3898 22.3733 29.5202C22.222 30.4765 22.2924 31.4547 22.5791 32.3794C22.8657 33.3041 23.361 34.1506 24.0267 34.8536C24.517 35.3752 25.1073 35.7928 25.7625 36.0814C26.4176 36.37 27.1242 36.5238 27.84 36.5336C28.0678 35.7998 28.3349 35.0787 28.64 34.3736ZM26.6667 22.8802C26.5168 22.7105 26.4318 22.4932 26.4267 22.2669C26.4429 22.2001 26.4725 22.1372 26.5137 22.0822C26.555 22.0272 26.607 21.9812 26.6667 21.9469C27.0602 21.7426 27.5111 21.6769 27.9467 21.7602C28.6133 21.7602 29.28 22.1869 29.2267 22.6669C29.1271 22.931 28.9479 23.1577 28.7137 23.3154C28.4796 23.473 28.2022 23.554 27.92 23.5469H27.76C27.3218 23.4777 26.9288 23.2381 26.6667 22.8802Z" fill="white"/>
<path d="M21.0133 29.3332C21.2539 27.298 21.3075 25.2449 21.1733 23.1999V22.4532C21.0682 18.051 22.5228 13.7534 25.28 10.3199C22.6133 9.46657 16.2133 7.65324 12.2933 10.5866C9.89333 12.2932 8.77333 15.4932 9.01333 20.0532C9.54456 24.0371 10.4371 27.9644 11.68 31.7866C13.4933 37.7066 15.5467 41.4399 17.3067 42.0532C17.5733 42.0532 18.4 42.3999 19.6 40.9599C21.3067 38.9332 22.88 37.1999 23.6 36.4266L23.0933 35.9199C22.2581 35.0595 21.6352 34.0161 21.2741 32.8726C20.913 31.7292 20.8237 30.5173 21.0133 29.3332ZM30.3467 38.3999C29.92 38.2399 29.7067 38.1332 29.2267 38.6932C28.9413 38.9804 28.6825 39.2928 28.4533 39.6266C27.52 40.7732 27.12 41.1732 24.4267 41.7332C24.0619 41.7938 23.7044 41.8921 23.36 42.0266C23.6565 42.2343 23.9922 42.3795 24.3467 42.4532C25.54 42.8569 26.8312 42.8675 28.031 42.4835C29.2308 42.0996 30.276 41.3413 31.0133 40.3199C31.0822 40.174 31.1179 40.0146 31.1179 39.8532C31.1179 39.6919 31.0822 39.5325 31.0133 39.3866C30.9289 38.983 30.6896 38.6287 30.3467 38.3999ZM47.12 22.8799C47.2438 22.184 47.3151 21.4798 47.3333 20.7732C45.5733 20.5599 43.5467 20.5866 42.7467 21.7332C41.2 23.9466 44.24 29.4132 45.4133 31.7332C45.6711 32.1449 45.9026 32.5724 46.1067 33.0132C46.2131 33.301 46.3471 33.5778 46.5067 33.8399C47.2011 32.029 47.3494 30.0542 46.9333 28.1599C46.8057 27.2321 46.7433 26.2965 46.7467 25.3599C46.806 24.5247 46.9308 23.6955 47.12 22.8799ZM45.6267 22.4532C45.3957 22.6887 45.0977 22.847 44.7733 22.9066H44.6133C44.3598 22.9076 44.1119 22.8316 43.9024 22.6888C43.6929 22.546 43.5317 22.3429 43.44 22.1066C43.44 21.7332 43.9733 21.4666 44.6133 21.3599C45.2533 21.2532 45.8933 21.3599 45.9467 21.7599C45.9345 22.0239 45.8197 22.2727 45.6267 22.4532Z" fill="white"/>
<path d="M45.3334 13.0133C47.0901 14.9668 48.3441 17.3192 48.9867 19.8667C49.0008 19.9996 49.0008 20.1337 48.9867 20.2667C48.9955 21.2143 48.9151 22.1607 48.7467 23.0933C48.6202 23.8522 48.5401 24.6181 48.5067 25.3867C48.5013 26.279 48.5637 27.1705 48.6934 28.0533C49.232 30.5002 48.8921 33.0586 47.7334 35.28L47.92 35.4933C53.84 26.1867 55.92 15.3867 54.0267 13.0133C52.8139 11.4886 51.267 10.2628 49.5055 9.43061C47.7439 8.59837 45.8147 8.1819 43.8667 8.21333C42.4064 8.19295 40.9485 8.33606 39.52 8.64C41.7598 9.64577 43.7462 11.1401 45.3334 13.0133Z" fill="white"/>
<path d="M57.7333 37.3333C57.5467 36.7999 56.7467 35.0666 53.8133 35.6799C52.9352 35.8668 52.0434 35.9827 51.1467 36.0266C53.5541 31.9553 55.4018 27.5781 56.64 23.0133C57.6267 19.1466 58.4 13.9733 56.3467 11.3333C54.8385 9.42017 52.9074 7.88274 50.705 6.84169C48.5026 5.80064 46.0889 5.28431 43.6533 5.33326C41.4326 5.31902 39.222 5.63354 37.0933 6.26659C35.8161 6.0421 34.5233 5.91728 33.2267 5.89326C30.9313 5.84609 28.6655 6.41714 26.6667 7.54659C25.1248 7.03845 23.547 6.64625 21.9467 6.37326C20.0452 5.88845 18.0651 5.79446 16.1262 6.09698C14.1874 6.39949 12.3301 7.09223 10.6667 8.13326C7.36 10.4533 5.84 14.5066 6.10666 20.1866C6.61574 24.41 7.50831 28.5784 8.77333 32.6399C9.52573 35.1811 10.5168 37.6454 11.7333 39.9999C12.6002 42.1683 14.2725 43.9171 16.4 44.8799C17.1711 45.131 17.9951 45.172 18.7873 44.9986C19.5795 44.8251 20.3111 44.4436 20.9067 43.8933C21.6204 44.6699 22.5484 45.2174 23.5733 45.4666C25.6461 46.0377 27.8497 45.9064 29.84 45.0933V47.2533C29.8176 49.3795 30.0959 51.4983 30.6667 53.5466C30.6742 53.662 30.6742 53.7778 30.6667 53.8933C31.0222 55.1319 31.6718 56.2663 32.56 57.1999C33.634 58.2048 35.0633 58.742 36.5333 58.6933C37.1618 58.6957 37.7883 58.6241 38.4 58.4799C39.559 58.3387 40.6779 57.9662 41.6902 57.3844C42.7026 56.8027 43.5878 56.0236 44.2933 55.0933C46.0995 51.8406 46.9413 48.1405 46.72 44.4266V43.7333H47.1733C49.3608 43.8848 51.5532 43.5194 53.5733 42.6666C54.7733 42.0533 58.6667 39.9999 57.7333 37.3333ZM52.9067 41.2533C51.3816 41.8674 49.7506 42.1754 48.1067 42.1599C47.395 42.1789 46.6845 42.089 46 41.8933C45.7333 44.3999 45.1467 49.0666 44.8 51.0133C44.6976 52.5838 44.0363 54.0658 42.9356 55.1909C41.835 56.316 40.3679 57.0097 38.8 57.1466C38.2213 57.2691 37.6315 57.3316 37.04 57.3333C35.879 57.3062 34.7585 56.9009 33.8488 56.1789C32.9392 55.457 32.29 54.4578 32 53.3333C31.3125 49.7681 31.0618 46.1324 31.2533 42.5066C29.9551 43.6799 28.256 44.3099 26.5067 44.2666C25.6602 44.2524 24.8185 44.136 24 43.9199C23.76 43.9199 21.68 43.3066 21.7067 41.9733C21.7333 40.6399 23.4667 40.3999 24.1067 40.2666C26.4 39.7866 26.56 39.5999 27.28 38.6933C27.437 38.4708 27.6062 38.2572 27.7867 38.0533C26.7521 38.0145 25.7399 37.7409 24.8267 37.2533C24.2133 37.9199 22.5333 39.7333 20.72 41.8933C20.3904 42.3834 19.9515 42.7903 19.4378 43.0818C18.9242 43.3734 18.3498 43.5416 17.76 43.5733C17.4505 43.6177 17.1362 43.6177 16.8267 43.5733C14.48 42.6666 12.2667 38.7999 10.24 31.9999C8.98172 28.0638 8.08905 24.02 7.57333 19.9199C7.30666 14.7999 8.64 11.1733 11.4933 9.25326C16.6133 5.62659 24.8267 8.42659 26.6933 9.09326C28.5926 7.83537 30.8448 7.2186 33.12 7.33326C34.3797 7.33458 35.6342 7.49587 36.8533 7.81326C38.9992 7.08299 41.2534 6.72231 43.52 6.74659C45.7216 6.68606 47.9073 7.13606 49.9059 8.06134C51.9045 8.98663 53.6617 10.3621 55.04 12.0799C56.88 14.4266 55.6533 20.0799 55.04 22.4533C53.6717 27.5709 51.5027 32.4399 48.6133 36.8799C49.04 37.1733 50.3467 37.7066 53.9467 36.8799C55.1733 36.6133 55.8933 36.8799 56.1333 37.5466C56.72 39.0133 54.2667 40.5599 52.9067 41.1999V41.2533Z" fill="white"/>
<path d="M46.48 36.2398C45.8004 35.4373 45.2433 34.5387 44.8267 33.5731C44.8267 33.3865 44.5067 32.9331 44.2133 32.4265C42.6667 29.7598 39.44 23.8398 41.5467 20.8531C42.2558 20.099 43.1552 19.5499 44.15 19.2637C45.1449 18.9774 46.1985 18.9646 47.2 19.2265C46.5145 17.335 45.4937 15.5826 44.1867 14.0531C42.854 12.4113 41.1767 11.0826 39.2735 10.1609C37.3703 9.23929 35.2878 8.7473 33.1733 8.71979C31.9256 8.64114 30.6752 8.82607 29.5036 9.26254C28.3321 9.69901 27.2655 10.3772 26.3733 11.2531C24.1029 13.9279 22.8057 17.2931 22.6933 20.7998L23.0933 20.5865C24.202 19.9884 25.415 19.6083 26.6667 19.4665C27.1846 19.3465 27.7218 19.3346 28.2446 19.4316C28.7673 19.5286 29.2645 19.7324 29.705 20.0302C30.1454 20.328 30.5197 20.7135 30.8045 21.1625C31.0893 21.6115 31.2784 22.1144 31.36 22.6398C32.4563 26.2463 32.1809 30.1307 30.5867 33.5465C30.4133 33.883 30.2618 34.2304 30.1333 34.5865V34.8798C29.8667 35.5998 29.6267 36.2665 29.4667 36.8265C29.9804 36.7286 30.5119 36.7939 30.9867 37.0131C31.3878 37.204 31.7431 37.4791 32.0284 37.8196C32.3137 38.1601 32.5223 38.5581 32.64 38.9865V39.4131C32.6529 39.4926 32.6529 39.5737 32.64 39.6531C32.3527 44.017 32.5495 48.3992 33.2267 52.7198C33.3467 53.2842 33.5875 53.8159 33.9324 54.2784C34.2773 54.741 34.7183 55.1235 35.2249 55.3996C35.7315 55.6757 36.2919 55.839 36.8676 55.8781C37.4433 55.9173 38.0206 55.8314 38.56 55.6265C39.8298 55.5408 41.0221 54.9854 41.9046 54.0684C42.7871 53.1514 43.2964 51.9386 43.3333 50.6665C43.7333 48.3198 44.5333 41.7331 44.64 40.3198C44.64 37.4931 46.0267 36.9331 46.88 36.6931L46.48 36.2398Z" fill="white"/>
<path d="M48 38.2132L47.7867 38.0532H47.4667C46.7733 38.2399 46.1333 38.4266 46.2133 40.1866C47.0003 40.4987 47.8529 40.6088 48.6933 40.5066C49.9543 40.4535 51.1977 40.1922 52.3733 39.7332C53.1445 39.3853 53.8555 38.9173 54.48 38.3466C52.3746 39.0848 50.0733 39.0374 48 38.2132Z" fill="white"/>
</svg>
