<svg width="64" height="64" viewBox="0 0 64 64" fill="none" xmlns="http://www.w3.org/2000/svg">
<path d="M25.56 31.1787H37.1013C37.1013 31.1787 43.5867 31.2827 43.5867 24.912V14.376C43.5867 14.376 44.5707 8 31.8293 8C19.632 8 20.392 13.288 20.392 13.288L20.408 18.768H32.0427V20.4133H15.7867C15.7867 20.4133 7.98132 19.528 7.98132 31.832C7.98132 44.136 14.7947 43.6987 14.7947 43.6987H18.8587V37.9893C18.8587 37.9893 18.6373 31.1787 25.56 31.1787ZM25.4107 15.872C24.8555 15.872 24.323 15.6515 23.9304 15.2589C23.5379 14.8663 23.3173 14.3339 23.3173 13.7787C23.3173 13.2235 23.5379 12.691 23.9304 12.2985C24.323 11.9059 24.8555 11.6853 25.4107 11.6853C25.9658 11.6853 26.4983 11.9059 26.8909 12.2985C27.2834 12.691 27.504 13.2235 27.504 13.7787C27.504 14.3339 27.2834 14.8663 26.8909 15.2589C26.4983 15.6515 25.9658 15.872 25.4107 15.872Z" fill="white"/>
<path d="M49.2053 20.0854H45.1413V25.7947C45.1413 25.7947 45.3627 32.6054 38.44 32.6054H26.8987C26.8987 32.6054 20.4133 32.4987 20.4133 38.8721V49.408C20.4133 49.408 19.4293 55.784 32.1707 55.784C44.3653 55.784 43.6053 50.4961 43.6053 50.4961L43.5893 45.0187H31.9547V43.3734H48.2133C48.2133 43.3734 56.0187 44.2587 56.0187 31.9547C56.0187 19.6507 49.2053 20.0854 49.2053 20.0854ZM38.5893 47.9147C39.1445 47.9147 39.677 48.1353 40.0695 48.5278C40.4621 48.9204 40.6827 49.4529 40.6827 50.008C40.6827 50.5632 40.4621 51.0957 40.0695 51.4883C39.677 51.8808 39.1445 52.1014 38.5893 52.1014C38.0341 52.1014 37.5017 51.8808 37.1091 51.4883C36.7165 51.0957 36.496 50.5632 36.496 50.008C36.496 49.4529 36.7165 48.9204 37.1091 48.5278C37.5017 48.1353 38.0341 47.9147 38.5893 47.9147Z" fill="white"/>
</svg>
