<svg width="64" height="64" viewBox="0 0 64 64" fill="none" xmlns="http://www.w3.org/2000/svg">
<path d="M49.3333 25.3598C47.3335 24.6711 45.5682 23.4326 44.24 21.7865C42.7761 19.9525 40.9121 18.4775 38.7907 17.4746C36.6692 16.4716 34.3464 15.9672 32 15.9998C28.8436 15.7763 25.7189 16.7498 23.248 18.7265C20.7771 20.7032 19.1414 23.5381 18.6666 26.6665C19.6018 25.1018 21.0092 23.8742 22.6864 23.1602C24.3635 22.4462 26.224 22.2827 28 22.6932C29.9965 23.402 31.7589 24.6477 33.0933 26.2932C34.5652 28.1126 36.4327 29.5723 38.5538 30.5612C40.6748 31.55 42.9935 32.0421 45.3333 31.9998C48.4897 32.2234 51.6144 31.2499 54.0853 29.2732C56.5562 27.2965 58.1919 24.4616 58.6666 21.3332C57.7485 22.9166 56.3456 24.1628 54.665 24.8879C52.9844 25.6129 51.1152 25.7784 49.3333 25.3598ZM14.6666 38.6398C16.6665 39.3286 18.4318 40.5671 19.76 42.2132C21.2239 44.0472 23.0878 45.5221 25.2093 46.5251C27.3308 47.5281 29.6536 48.0325 32 47.9998C35.1563 48.2234 38.2811 47.2499 40.752 45.2732C43.2228 43.2965 44.8585 40.4616 45.3333 37.3332C44.3982 38.8979 42.9908 40.1255 41.3136 40.8395C39.6364 41.5535 37.776 41.717 36 41.3065C34.0035 40.5977 32.2411 39.352 30.9066 37.7065C29.4308 35.8916 27.5625 34.4351 25.4424 33.4467C23.3223 32.4582 21.0056 31.9635 18.6666 31.9998C15.5103 31.7763 12.3855 32.7498 9.91466 34.7265C7.44379 36.7032 5.80809 39.5381 5.33331 42.6665C6.25146 41.0831 7.6544 39.8369 9.335 39.1118C11.0156 38.3868 12.8848 38.2213 14.6666 38.6398Z" fill="#FFFCFC"/>
</svg>
