<svg width="64" height="64" viewBox="0 0 64 64" fill="none" xmlns="http://www.w3.org/2000/svg">
<path d="M37.3333 5.33331H16C14.5855 5.33331 13.2289 5.89522 12.2288 6.89541C11.2286 7.8956 10.6667 9.25216 10.6667 10.6666V53.3333C10.6667 54.7478 11.2286 56.1044 12.2288 57.1045C13.2289 58.1047 14.5855 58.6666 16 58.6666H48C49.4145 58.6666 50.771 58.1047 51.7712 57.1045C52.7714 56.1044 53.3333 54.7478 53.3333 53.3333V21.3333L37.3333 5.33331ZM25.1893 46.432C25.9227 46.432 26.7387 46.2693 27.2213 46.08L27.5893 47.9813C27.1413 48.2053 26.1333 48.4453 24.824 48.4453C21.0987 48.4453 19.1787 46.128 19.1787 43.056C19.176 39.3813 21.8 37.3333 25.0613 37.3333C26.3253 37.3333 27.2827 37.5893 27.7147 37.8133L27.2187 39.7493C26.5692 39.482 25.873 39.3469 25.1707 39.352C23.2347 39.352 21.7307 40.52 21.7307 42.9173C21.7333 45.072 23.016 46.432 25.1893 46.432ZM31.832 48.4453C30.6027 48.4453 29.3867 48.128 28.7787 47.792L29.2747 45.776C29.9307 46.112 30.9387 46.448 31.9787 46.448C33.0987 46.448 33.6907 45.984 33.6907 45.28C33.6907 44.608 33.1787 44.224 31.8827 43.76C30.0907 43.136 28.9253 42.1466 28.9253 40.5786C28.9253 38.7413 30.4587 37.3333 33.0027 37.3333C34.216 37.3333 35.112 37.5893 35.752 37.8746L35.208 39.8426C34.5049 39.502 33.7332 39.3269 32.952 39.3306C31.896 39.3306 31.3867 39.8133 31.3867 40.3706C31.3867 41.0586 31.9947 41.3626 33.384 41.8906C35.288 42.5946 36.184 43.5866 36.184 45.104C36.1813 46.912 34.7893 48.4453 31.832 48.4453ZM40.472 48.4453C39.2427 48.4453 38.0267 48.128 37.4187 47.792L37.9147 45.776C38.5707 46.112 39.5787 46.448 40.6187 46.448C41.7387 46.448 42.3307 45.984 42.3307 45.28C42.3307 44.608 41.8187 44.224 40.5227 43.76C38.7307 43.136 37.5653 42.1466 37.5653 40.5786C37.5653 38.7413 39.0987 37.3333 41.6427 37.3333C42.856 37.3333 43.752 37.5893 44.392 37.8746L43.848 39.8426C43.1449 39.502 42.3732 39.3269 41.592 39.3306C40.536 39.3306 40.0267 39.8133 40.0267 40.3706C40.0267 41.0586 40.6347 41.3626 42.024 41.8906C43.928 42.5946 44.824 43.5866 44.824 45.104C44.824 46.912 43.4293 48.4453 40.472 48.4453ZM37.3333 24H34.6667V10.6666L48 24H37.3333Z" fill="white"/>
</svg>
