<svg width="27" height="27" viewBox="0 0 27 27" fill="none" xmlns="http://www.w3.org/2000/svg">
<g id="&#240;&#159;&#166;&#134; icon &#34;qr code outline&#34;" filter="url(#filter0_d_8_805)">
<path id="Vector" d="M20 17H17.3333C17.1492 17 17 17.1492 17 17.3333V20C17 20.1841 17.1492 20.3333 17.3333 20.3333H20C20.1841 20.3333 20.3333 20.1841 20.3333 20V17.3333C20.3333 17.1492 20.1841 17 20 17Z" fill="#FF9A71"/>
<path id="Vector_2" d="M16.6663 14.3333H14.6663C14.4822 14.3333 14.333 14.4825 14.333 14.6666V16.6666C14.333 16.8507 14.4822 16.9999 14.6663 16.9999H16.6663C16.8504 16.9999 16.9997 16.8507 16.9997 16.6666V14.6666C16.9997 14.4825 16.8504 14.3333 16.6663 14.3333Z" fill="#FF9A71"/>
<path id="Vector_3" d="M22.6663 20.3333H20.6663C20.4822 20.3333 20.333 20.4825 20.333 20.6666V22.6666C20.333 22.8507 20.4822 22.9999 20.6663 22.9999H22.6663C22.8504 22.9999 22.9997 22.8507 22.9997 22.6666V20.6666C22.9997 20.4825 22.8504 20.3333 22.6663 20.3333Z" fill="#FF9A71"/>
<path id="Vector_4" d="M22.6667 14.3333H21.3333C21.1492 14.3333 21 14.4825 21 14.6666V15.9999C21 16.184 21.1492 16.3333 21.3333 16.3333H22.6667C22.8508 16.3333 23 16.184 23 15.9999V14.6666C23 14.4825 22.8508 14.3333 22.6667 14.3333Z" fill="#FF9A71"/>
<path id="Vector_5" d="M15.9997 21H14.6663C14.4822 21 14.333 21.1492 14.333 21.3333V22.6667C14.333 22.8508 14.4822 23 14.6663 23H15.9997C16.1838 23 16.333 22.8508 16.333 22.6667V21.3333C16.333 21.1492 16.1838 21 15.9997 21Z" fill="#FF9A71"/>
<path id="Vector_6" d="M20 6.99988H17.3333C17.1492 6.99988 17 7.14912 17 7.33321V9.99988C17 10.184 17.1492 10.3332 17.3333 10.3332H20C20.1841 10.3332 20.3333 10.184 20.3333 9.99988V7.33321C20.3333 7.14912 20.1841 6.99988 20 6.99988Z" fill="#FF9A71"/>
<path id="Vector_7" d="M21.6667 5H15.6667C15.2985 5 15 5.29848 15 5.66667V11.6667C15 12.0349 15.2985 12.3333 15.6667 12.3333H21.6667C22.0349 12.3333 22.3333 12.0349 22.3333 11.6667V5.66667C22.3333 5.29848 22.0349 5 21.6667 5Z" stroke="#FF9A71" stroke-linecap="round" stroke-linejoin="round"/>
<path id="Vector_8" d="M10 7H7.33333C7.14924 7 7 7.14924 7 7.33333V10C7 10.1841 7.14924 10.3333 7.33333 10.3333H10C10.1841 10.3333 10.3333 10.1841 10.3333 10V7.33333C10.3333 7.14924 10.1841 7 10 7Z" fill="#FF9A71"/>
<path id="Vector_9" d="M11.6667 5H5.66667C5.29848 5 5 5.29848 5 5.66667V11.6667C5 12.0349 5.29848 12.3333 5.66667 12.3333H11.6667C12.0349 12.3333 12.3333 12.0349 12.3333 11.6667V5.66667C12.3333 5.29848 12.0349 5 11.6667 5Z" stroke="#FF9A71" stroke-linecap="round" stroke-linejoin="round"/>
<path id="Vector_10" d="M10 17H7.33333C7.14924 17 7 17.1492 7 17.3333V20C7 20.1841 7.14924 20.3333 7.33333 20.3333H10C10.1841 20.3333 10.3333 20.1841 10.3333 20V17.3333C10.3333 17.1492 10.1841 17 10 17Z" fill="#FF9A71"/>
<path id="Vector_11" d="M11.6667 15.0001H5.66667C5.29848 15.0001 5 15.2986 5 15.6668V21.6668C5 22.035 5.29848 22.3335 5.66667 22.3335H11.6667C12.0349 22.3335 12.3333 22.035 12.3333 21.6668V15.6668C12.3333 15.2986 12.0349 15.0001 11.6667 15.0001Z" stroke="#FF9A71" stroke-linecap="round" stroke-linejoin="round"/>
</g>
<defs>
<filter id="filter0_d_8_805" x="0.5" y="0.5" width="26.5" height="26.5" filterUnits="userSpaceOnUse" color-interpolation-filters="sRGB">
<feFlood flood-opacity="0" result="BackgroundImageFix"/>
<feColorMatrix in="SourceAlpha" type="matrix" values="0 0 0 0 0 0 0 0 0 0 0 0 0 0 0 0 0 0 127 0" result="hardAlpha"/>
<feOffset/>
<feGaussianBlur stdDeviation="2"/>
<feComposite in2="hardAlpha" operator="out"/>
<feColorMatrix type="matrix" values="0 0 0 0 0 0 0 0 0 0 0 0 0 0 0 0 0 0 0.25 0"/>
<feBlend mode="normal" in2="BackgroundImageFix" result="effect1_dropShadow_8_805"/>
<feBlend mode="normal" in="SourceGraphic" in2="effect1_dropShadow_8_805" result="shape"/>
</filter>
</defs>
</svg>
