<svg width="64" height="64" viewBox="0 0 64 64" fill="none" xmlns="http://www.w3.org/2000/svg">
<path d="M31.9999 34.7466C34.6288 34.7466 36.7599 32.6154 36.7599 29.9866C36.7599 27.3577 34.6288 25.2266 31.9999 25.2266C29.371 25.2266 27.2399 27.3577 27.2399 29.9866C27.2399 32.6154 29.371 34.7466 31.9999 34.7466Z" fill="white"/>
<path d="M18.672 39.4507L17.6186 39.1813C9.79464 37.2053 5.30664 33.8453 5.30664 29.976C5.30664 26.104 9.79731 22.7467 17.6186 20.7707L18.672 20.504L18.968 21.5467C19.7588 24.2765 20.7719 26.937 21.9973 29.5013L22.224 29.976L21.9973 30.4507C20.7706 33.0187 19.7546 35.68 18.968 38.4107L18.672 39.4507ZM17.1333 23.1973C11.1893 24.872 7.53864 27.4267 7.53864 29.976C7.53864 32.52 11.1866 35.0773 17.1333 36.7493C17.8613 34.4347 18.7413 32.1707 19.76 29.976C18.7339 27.7777 17.8564 25.5131 17.1333 23.1973ZM45.3253 39.4507L45.032 38.4053C44.2391 35.675 43.2251 33.0137 42 30.448L41.7733 29.976L42 29.4987C43.2266 26.936 44.2373 24.272 45.032 21.5413L45.3253 20.5013L46.3786 20.768C54.2053 22.744 58.6906 26.1013 58.6906 29.976C58.6906 33.848 54.2026 37.2053 46.3786 39.1813L45.3253 39.4507ZM44.232 29.976C45.2986 32.2853 46.1866 34.5573 46.864 36.7493C52.8106 35.0773 56.4613 32.52 56.4613 29.976C56.4613 27.4267 52.8133 24.8747 46.864 23.1973C46.1367 25.5123 45.2575 27.7768 44.232 29.976Z" fill="white"/>
<path d="M17.1174 23.1866L16.8241 22.1466C14.6214 14.392 15.2881 8.83729 18.6561 6.90129C21.9494 4.99462 27.2481 7.24796 32.7974 12.9413L33.5547 13.72L32.7974 14.496C30.8264 16.5458 29.0249 18.7521 27.4107 21.0933L27.1094 21.5253L26.5867 21.568C23.7483 21.7909 20.9327 22.2448 18.1681 22.9253L17.1174 23.1866ZM21.3361 8.44262C20.7387 8.44262 20.2107 8.57329 19.7654 8.82929C17.5574 10.1013 17.1681 14.5306 18.6881 20.5093C21.0641 19.984 23.4614 19.608 25.8774 19.3973C27.2761 17.4134 28.802 15.5224 30.4454 13.736C26.9707 10.3573 23.6907 8.44262 21.3361 8.44262ZM42.6614 53.7333C39.4934 53.7333 35.4241 51.344 31.2001 47.008L30.4454 46.232L31.2001 45.4586C33.1714 43.4055 34.9737 41.1965 36.5894 38.8533L36.8881 38.4266L37.4054 38.376C40.2448 38.157 43.0614 37.7048 45.8267 37.024L46.8801 36.7573L47.1761 37.8C49.3681 45.5493 48.7041 51.112 45.3414 53.048C44.5249 53.5107 43.5998 53.7473 42.6614 53.7333ZM33.5547 46.2133C37.0267 49.592 40.3094 51.5093 42.6614 51.5093C43.2614 51.5093 43.7894 51.376 44.2321 51.1226C46.4427 49.848 46.8347 45.4106 45.3094 39.432C42.9361 39.96 40.5361 40.3386 38.1147 40.5493C36.722 42.5363 35.1986 44.4284 33.5547 46.2133Z" fill="white"/>
<path d="M46.88 23.1865L45.8267 22.9225C43.0615 22.24 40.2449 21.786 37.4053 21.5652L36.888 21.5199L36.5893 21.0879C34.9759 18.7454 33.1734 16.5389 31.2 14.4905L30.4453 13.7145L31.2 12.9412C36.7467 7.25053 42.0427 4.9972 45.3413 6.9012C48.7067 8.83987 49.376 14.3945 47.176 22.1465L46.88 23.1865ZM38.1147 19.3972C40.6587 19.6239 43.0693 20.0052 45.3093 20.5092C46.832 14.5305 46.4427 10.1012 44.232 8.82653C42.0347 7.55453 37.8987 9.5012 33.5547 13.7359C35.1973 15.5225 36.7227 17.4105 38.1147 19.3972ZM21.336 53.7332C20.3977 53.7466 19.4727 53.5101 18.656 53.0479C15.288 51.1119 14.6213 45.5519 16.8213 37.7999L17.1093 36.7572L18.1627 37.0239C20.7333 37.6719 23.5653 38.1279 26.584 38.3759L27.1013 38.4265L27.4027 38.8532C29.0133 41.1945 30.816 43.4052 32.7893 45.4585L33.5467 46.2319L32.7893 47.0079C28.568 51.3465 24.4987 53.7332 21.336 53.7332ZM18.688 39.4345C17.168 45.4132 17.5573 49.8505 19.7653 51.1252C21.9653 52.3785 26.088 50.4452 30.4453 46.2132C28.8025 44.4263 27.2767 42.5352 25.8773 40.5519C23.4589 40.338 21.0573 39.9647 18.688 39.4345Z" fill="white"/>
<path d="M32.0001 40.8346C30.1681 40.8346 28.2881 40.7572 26.4001 40.5999L25.8774 40.5546L25.5761 40.1226C24.5114 38.5916 23.5097 37.0179 22.5734 35.4052C21.6441 33.7883 20.7803 32.1345 19.9841 30.4479L19.7601 29.9759L19.9841 29.4986C20.7814 27.8132 21.6428 26.1599 22.5734 24.5439C23.4988 22.9546 24.5094 21.3652 25.5761 19.8239L25.8774 19.3972L26.4001 19.3492C30.1251 19.0372 33.8697 19.0372 37.5948 19.3492L38.1121 19.3999L38.4134 19.8266C40.5462 22.8899 42.4194 26.126 44.0134 29.5012L44.2348 29.9786L44.0134 30.4506C42.4238 33.8281 40.5504 37.0646 38.4134 40.1252L38.1121 40.5572L37.5948 40.6026C35.7121 40.7546 33.8294 40.8346 32.0001 40.8346ZM27.1094 38.4239C30.4028 38.6719 33.5974 38.6719 36.8881 38.4239C38.7251 35.7338 40.3581 32.9099 41.7734 29.9759C40.3631 27.0393 38.7299 24.215 36.8881 21.5279C33.6334 21.2772 30.3642 21.2772 27.1094 21.5279C25.2661 24.214 23.6328 27.0384 22.2241 29.9759C23.6424 32.9083 25.2753 35.732 27.1094 38.4239Z" fill="white"/>
</svg>
