<svg width="263" height="267" viewBox="0 0 263 267" fill="none" xmlns="http://www.w3.org/2000/svg">
<path d="M98 210V48L0 130.917L98 210Z" fill="#244371"/>
<path d="M98 210V48L0 130.917L98 210Z" fill="#244371"/>
<path d="M150 211V49L52 131.917L150 211Z" fill="#293D5A"/>
<path d="M150 211V49L52 131.917L150 211Z" fill="#293D5A"/>
<path d="M193 48V210L95 127.083L193 48Z" fill="#1B355C"/>
<path d="M193 48V210L95 127.083L193 48Z" fill="#1B355C"/>
<g filter="url(#filter0_d_1186_441)">
<mask id="mask0_1186_441" style="mask-type:alpha" maskUnits="userSpaceOnUse" x="161" y="0" width="104" height="268">
<rect x="264.841" y="0.143082" width="266.859" height="102.474" transform="rotate(90.08 264.841 0.143082)" fill="#D9D9D9"/>
</mask>
<g mask="url(#mask0_1186_441)">
<circle cx="259.323" cy="129.295" r="80.0578" transform="rotate(90.08 259.323 129.295)" fill="#18407C"/>
<circle cx="259.323" cy="129.295" r="80.0578" transform="rotate(90.08 259.323 129.295)" fill="black" fill-opacity="0.2"/>
</g>
</g>
<defs>
<filter id="filter0_d_1186_441" x="157.995" y="0" width="110.846" height="275.002" filterUnits="userSpaceOnUse" color-interpolation-filters="sRGB">
<feFlood flood-opacity="0" result="BackgroundImageFix"/>
<feColorMatrix in="SourceAlpha" type="matrix" values="0 0 0 0 0 0 0 0 0 0 0 0 0 0 0 0 0 0 127 0" result="hardAlpha"/>
<feOffset dy="4"/>
<feGaussianBlur stdDeviation="2"/>
<feComposite in2="hardAlpha" operator="out"/>
<feColorMatrix type="matrix" values="0 0 0 0 0 0 0 0 0 0 0 0 0 0 0 0 0 0 0.25 0"/>
<feBlend mode="normal" in2="BackgroundImageFix" result="effect1_dropShadow_1186_441"/>
<feBlend mode="normal" in="SourceGraphic" in2="effect1_dropShadow_1186_441" result="shape"/>
</filter>
</defs>
</svg>
