<svg width="26" height="26" viewBox="0 0 26 26" fill="none" xmlns="http://www.w3.org/2000/svg">
<path d="M21.6659 11.9156H23.8326C23.8326 6.3581 19.6369 2.16669 14.0718 2.16669V4.33335C18.4723 4.33335 21.6659 7.5216 21.6659 11.9156Z" fill="white"/>
<path d="M14.0824 8.66672C16.3607 8.66672 17.3324 9.63847 17.3324 11.9167H19.4991C19.4991 8.42297 17.5762 6.50006 14.0824 6.50006V8.66672ZM17.7896 14.5633C17.5814 14.3741 17.3079 14.2732 17.0267 14.2819C16.7455 14.2906 16.4788 14.4082 16.2827 14.6099L13.6903 17.276C13.0663 17.1568 11.8118 16.7657 10.5204 15.4776C9.22908 14.1852 8.838 12.9275 8.72208 12.3078L11.386 9.7143C11.5879 9.51836 11.7057 9.25153 11.7144 8.97028C11.7231 8.68903 11.622 8.41543 11.4326 8.20739L7.42967 3.80581C7.24013 3.59711 6.9767 3.47052 6.69533 3.45292C6.41396 3.43532 6.13682 3.5281 5.92275 3.71156L3.57192 5.72764C3.38462 5.91561 3.27283 6.16579 3.25775 6.43072C3.2415 6.70155 2.93167 13.1171 7.90633 18.0939C12.2462 22.4326 17.6823 22.7501 19.1795 22.7501C19.3983 22.7501 19.5327 22.7436 19.5684 22.7414C19.8333 22.7266 20.0834 22.6143 20.2704 22.4261L22.2854 20.0742C22.469 19.8603 22.562 19.5832 22.5446 19.3019C22.5272 19.0205 22.4008 18.757 22.1923 18.5673L17.7896 14.5633Z" fill="white"/>
</svg>
